HIERARCHY
ROOT Hips
{
	OFFSET 0.000000 0.000000 0.000000
	CHANNELS 6 Xposition Yposition Zposition Zrotation Yrotation Xrotation 
	JOINT LHipJoint
	{
		OFFSET 0.000000 0.000000 0.000000
		CHANNELS 3 Zrotation Yrotation Xrotation
		JOINT LeftUpLeg
		{
			OFFSET 1.363060 -1.794630 0.839290
			CHANNELS 3 Zrotation Yrotation Xrotation
			JOINT LeftLeg
			{
				OFFSET 2.448110 -6.726130 0.000000
				CHANNELS 3 Zrotation Yrotation Xrotation
				JOINT LeftFoot
				{
					OFFSET 2.562200 -7.039590 0.000000
					CHANNELS 3 Zrotation Yrotation Xrotation
					JOINT LeftToeBase
					{
						OFFSET 0.157640 -0.433110 2.322550
						CHANNELS 3 Zrotation Yrotation Xrotation
						End Site
						{
							OFFSET 0.000000 0.000000 0.000000
						}
					}
				}
			}
		}
	}
	JOINT RHipJoint
	{
		OFFSET 0.000000 0.000000 0.000000
		CHANNELS 3 Zrotation Yrotation Xrotation
		JOINT RightUpLeg
		{
			OFFSET -1.305520 -1.794630 0.839290
			CHANNELS 3 Zrotation Yrotation Xrotation
			JOINT RightLeg
			{
				OFFSET -2.542530 -6.985550 0.000000
				CHANNELS 3 Zrotation Yrotation Xrotation
				JOINT RightFoot
				{
					OFFSET -2.568260 -7.056230 0.000000
					CHANNELS 3 Zrotation Yrotation Xrotation
					JOINT RightToeBase
					{
						OFFSET -0.164730 -0.452590 2.363150
						CHANNELS 3 Zrotation Yrotation Xrotation
						End Site
						{
							OFFSET 0.000000 0.000000 0.000000
						}
					}
				}
			}
		}
	}
	JOINT LowerBack
	{
		OFFSET 0.000000 0.000000 0.000000
		CHANNELS 3 Zrotation Yrotation Xrotation
		JOINT Spine
		{
			OFFSET 0.028270 2.035590 -0.193380
			CHANNELS 3 Zrotation Yrotation Xrotation
			JOINT Spine1
			{
				OFFSET 0.056720 2.048850 -0.042750
				CHANNELS 3 Zrotation Yrotation Xrotation
				JOINT Neck
				{
					OFFSET 0.000000 0.000000 0.000000
					CHANNELS 3 Zrotation Yrotation Xrotation
					JOINT Neck1
					{
						OFFSET -0.054170 1.746240 0.172020
						CHANNELS 3 Zrotation Yrotation Xrotation
						JOINT Head
						{
							OFFSET 0.104070 1.761360 -0.123970
							CHANNELS 3 Zrotation Yrotation Xrotation
							End Site
							{
								OFFSET 0.000000 0.000000 0.000000
							}
						}
					}
				}
				JOINT LeftShoulder
				{
					OFFSET 0.000000 0.000000 0.000000
					CHANNELS 3 Zrotation Yrotation Xrotation
					JOINT LeftArm
					{
						OFFSET 3.362410 1.200890 -0.311210
						CHANNELS 3 Zrotation Yrotation Xrotation
						JOINT LeftForeArm
						{
							OFFSET 4.983000 -0.000000 -0.000000
							CHANNELS 3 Zrotation Yrotation Xrotation
							JOINT LeftHand
							{
								OFFSET 3.483560 -0.000000 -0.000000
								CHANNELS 3 Zrotation Yrotation Xrotation
								JOINT LeftFingerBase
								{
									OFFSET 0.000000 0.000000 0.000000
									CHANNELS 3 Zrotation Yrotation Xrotation
									JOINT LeftHandIndex1
									{
										OFFSET 0.715260 -0.000000 -0.000000
										CHANNELS 3 Zrotation Yrotation Xrotation
										End Site
										{
											OFFSET 0.000000 0.000000 0.000000
										}
									}
								}
								JOINT LThumb
								{
									OFFSET 0.000000 0.000000 0.000000
									CHANNELS 3 Zrotation Yrotation Xrotation
									End Site
									{
										OFFSET 0.000000 0.000000 0.000000
									}
								}
							}
						}
					}
				}
				JOINT RightShoulder
				{
					OFFSET 0.000000 0.000000 0.000000
					CHANNELS 3 Zrotation Yrotation Xrotation
					JOINT RightArm
					{
						OFFSET -3.136600 1.374050 -0.404650
						CHANNELS 3 Zrotation Yrotation Xrotation
						JOINT RightForeArm
						{
							OFFSET -5.241900 -0.000000 -0.000000
							CHANNELS 3 Zrotation Yrotation Xrotation
							JOINT RightHand
							{
								OFFSET -3.444170 -0.000000 -0.000000
								CHANNELS 3 Zrotation Yrotation Xrotation
								JOINT RightFingerBase
								{
									OFFSET 0.000000 0.000000 0.000000
									CHANNELS 3 Zrotation Yrotation Xrotation
									JOINT RightHandIndex1
									{
										OFFSET -0.622530 -0.000000 -0.000000
										CHANNELS 3 Zrotation Yrotation Xrotation
										End Site
										{
											OFFSET 0.000000 0.000000 0.000000
										}
									}
								}
								JOINT RThumb
								{
									OFFSET 0.000000 0.000000 0.000000
									CHANNELS 3 Zrotation Yrotation Xrotation
									End Site
									{
										OFFSET 0.000000 0.000000 0.000000
									}
								}
							}
						}
					}
				}
			}
		}
	}
}
MOTION
Frames: 4
Frame Time: 0.008333
-21.187795 17.378352 -2.294546 -174.212254 78.856550 -169.213177 3.730576 0.793349 -0.809156 -18.254915 -23.212429 -7.064762 -1.234664 9.500097 25.089632 -1.650786 13.815289 -15.228239 1.367900 -7.402200 -20.912700 -10.039060 -1.664550 -1.486924 31.291527 24.778226 2.320146 2.588147 -6.950931 20.132314 2.739082 -31.952609 -37.004348 -2.214200 -9.298800 26.734400 0.792703 -0.500917 3.832124 1.455998 -0.304722 -3.887219 -0.261539 -0.639446 -0.806770 -3.865977 -3.744917 -18.413365 6.074704 -3.872475 14.798683 1.071800 -1.255800 13.992600 2.529177 -1.077233 -0.812057 -89.942421 2.236990 33.942307 16.489720 -24.164855 -4.598902 -0.438023 -1.938431 -23.987242 30.142857 48.285733 24.776800 -7.125000 0.000000 0.000000 -36.817900 82.275700 -31.932600 -3.375498 1.433259 -1.068129 83.688621 -6.419358 27.672996 -16.165726 27.842158 -4.353894 0.470865 -0.424035 2.550994 -15.905124 17.631071 -5.196100 7.125000 0.000000 0.000000 7.635300 -11.391500 6.032000 
-21.186205 17.376664 -2.294546 -174.322003 78.835696 -169.337653 3.762263 0.802119 -0.817900 -18.321867 -23.259877 -7.061013 -1.208796 9.539603 25.182649 -1.765267 14.203043 -14.419768 1.980300 -8.825000 -25.249400 -10.022550 -1.664156 -1.488379 31.224685 24.744738 2.344913 2.590995 -6.925534 20.081461 2.634871 -31.726858 -37.148644 -2.356600 -9.572300 27.602500 0.787307 -0.479015 3.826385 1.446944 -0.277315 -3.878159 -0.309525 -0.623323 -0.770148 -3.751161 -3.566451 -18.456174 6.005438 -3.664564 14.743257 1.025900 -1.168600 13.951000 2.540784 -1.089924 -0.809181 -89.932677 2.194284 33.960261 16.517982 -24.203554 -4.612890 -0.438753 -1.939344 -23.996328 30.262279 48.317649 24.889800 -7.125000 0.000000 0.000000 -36.850700 82.348900 -32.010600 -3.366718 1.419850 -1.068058 83.800218 -6.391983 27.405447 -16.097196 27.756154 -4.323174 0.469466 -0.425688 2.977909 -15.956649 17.575531 -5.197700 7.125000 0.000000 0.000000 7.598400 -11.444500 5.993900 
-21.184715 17.375174 -2.294248 -174.435040 78.821182 -169.464911 3.773921 0.809025 -0.816939 -18.370113 -23.300804 -7.025669 -1.206925 9.542269 25.184450 -1.809613 14.376157 -14.165611 2.193500 -9.258000 -26.605900 -10.035885 -1.666470 -1.495031 31.231367 24.721098 2.339375 2.590755 -6.938460 20.111930 2.812922 -32.087820 -36.869720 -2.201400 -9.273600 26.655000 0.758975 -0.462678 3.831381 1.440642 -0.257559 -3.873637 -0.328279 -0.611480 -0.756339 -3.682474 -3.424004 -18.471453 5.974641 -3.492630 14.687322 1.009100 -1.096900 13.906100 2.547561 -1.099435 -0.806309 -89.904617 2.158601 34.012536 16.513400 -24.199518 -4.611362 -0.441343 -1.938784 -24.000294 30.346821 48.287162 24.953100 -7.125000 0.000000 0.000000 -36.539200 82.368100 -31.746300 -3.359027 1.411529 -1.066634 83.860385 -6.359877 27.311489 -16.009378 27.641021 -4.281417 0.471285 -0.425633 3.213865 -16.074490 17.513353 -5.219900 7.125000 0.000000 0.000000 7.516300 -11.497500 5.919800 
-21.183523 17.376266 -2.293254 -174.577027 78.816760 -169.605155 3.776467 0.812665 -0.810638 -18.419191 -23.462240 -6.954908 -1.212154 9.544765 25.185890 -1.827025 14.497261 -14.267567 2.149400 -9.170700 -26.330700 -10.068106 -1.670320 -1.506317 31.266387 24.700274 2.332023 2.597704 -6.948824 20.125619 3.177895 -32.808856 -36.268729 -1.822400 -8.486000 24.200200 0.705664 -0.454505 3.822639 1.440273 -0.250350 -3.870676 -0.312945 -0.605822 -0.739801 -3.635526 -3.304687 -18.483462 5.939444 -3.344134 14.642457 0.990700 -1.037100 13.869100 2.553794 -1.107731 -0.804035 -89.887806 2.113969 34.007407 16.481755 -24.158902 -4.594473 -0.440603 -1.933433 -24.038511 30.108824 48.136275 24.698900 -7.125000 0.000000 0.000000 -35.944300 82.165900 -31.085400 -3.349295 1.404425 -1.065645 83.859575 -6.309530 27.319543 -15.911210 27.510940 -4.234870 0.470988 -0.426498 3.246311 -16.048614 17.538572 -5.218500 7.125000 0.000000 0.000000 7.534200 -11.473900 5.937800 
